<svg width="513" height="513" viewBox="0 0 513 513" fill="none" xmlns="http://www.w3.org/2000/svg">
<path d="M343.341 460.323C349.34 454.322 352.711 446.184 352.711 437.699C352.711 429.214 349.34 421.076 343.341 415.075L184.941 256.675L343.341 98.2752C349.17 92.2399 352.396 84.1567 352.323 75.7664C352.25 67.3761 348.885 59.3501 342.952 53.417C337.018 47.4839 328.992 44.1186 320.602 44.0457C312.212 43.9727 304.129 47.1982 298.093 53.0272L117.069 234.051C111.07 240.052 107.7 248.19 107.7 256.675C107.7 265.16 111.07 273.298 117.069 279.299L298.093 460.323C304.094 466.322 312.232 469.692 320.717 469.692C329.203 469.692 337.34 466.322 343.341 460.323Z" fill="#40A2E3"/>
</svg>
