<svg width="107" height="115" viewBox="0 0 107 115" fill="none" xmlns="http://www.w3.org/2000/svg">
<path d="M16.0669 98.1004C17.1868 98.1004 18.0782 99.0146 18.0782 100.112V112.979C18.0782 113.893 17.324 114.647 16.4098 114.647C15.4956 114.647 14.7642 113.893 14.7642 112.979C14.7642 106.991 14.7871 104.683 14.9242 103.471L10.9246 109.025C10.5818 109.505 10.1704 109.733 9.78187 109.733C9.37048 109.733 8.98195 109.505 8.63913 109.025L4.68524 103.471C4.82237 104.66 4.84523 106.922 4.84523 112.979C4.84523 113.893 4.11387 114.647 3.19968 114.647C2.28548 114.647 1.53127 113.893 1.53127 112.979V100.112C1.53127 99.0146 2.42261 98.1004 3.5425 98.1004C4.15958 98.1004 4.75381 98.3746 5.14234 98.9003L9.80472 105.391L14.4671 98.9003C14.8556 98.3746 15.4499 98.1004 16.0669 98.1004ZM31.8454 102.42C32.6453 102.42 33.468 102.946 33.468 104.043V113.025C33.468 114.076 32.6681 114.647 31.8454 114.647C31.0226 114.647 30.1998 114.076 30.1998 113.025V112.43C29.6056 113.847 28.0286 114.716 26.0402 114.716C22.4292 114.716 20.2808 111.882 20.2808 108.476C20.2808 104.934 22.5434 102.283 26.2231 102.283C27.7086 102.283 29.2856 102.946 30.1998 104.271V104.043C30.1998 102.946 31.0226 102.42 31.8454 102.42ZM26.8859 111.813C28.8057 111.813 30.177 110.396 30.177 108.499C30.177 106.625 28.8057 105.231 26.8859 105.231C24.9432 105.231 23.549 106.602 23.549 108.499C23.549 110.442 24.9432 111.813 26.8859 111.813ZM40.6937 102.534H42.3393C43.0021 102.534 43.5963 103.106 43.5963 103.814C43.5963 104.523 43.0021 105.094 42.3393 105.094H40.6937V113.025C40.6937 114.099 39.871 114.647 39.0711 114.647C38.294 114.647 37.4484 114.099 37.4484 113.025V105.094H36.6256C35.9399 105.094 35.3457 104.523 35.3457 103.814C35.3457 103.106 35.9399 102.534 36.6256 102.534H37.4484V100.5C37.4484 99.426 38.2711 98.8775 39.0711 98.8775C39.871 98.8775 40.6937 99.426 40.6937 100.5V102.534ZM52.2842 102.283C54.7982 102.283 57.1066 103.883 57.1066 107.517V112.956C57.1066 114.076 56.2838 114.647 55.461 114.647C54.6611 114.647 53.8155 114.076 53.8155 112.956V108.019C53.8155 105.711 52.5127 105.071 51.2786 105.071C49.7244 105.071 48.6046 106.054 48.6046 108.111V113.025C48.6046 114.099 47.7818 114.647 46.9819 114.647C46.2048 114.647 45.3592 114.099 45.3592 113.025V98.8089C45.3592 97.7347 46.1819 97.1862 46.9819 97.1862C47.7818 97.1862 48.6046 97.7347 48.6046 98.8089V104.203C49.3588 102.991 50.5701 102.283 52.2842 102.283ZM71.3037 100.797L66.367 106.168L71.2123 111.973C71.5094 112.339 71.6465 112.727 71.6465 113.093C71.6465 113.939 70.938 114.647 70.001 114.647C69.5439 114.647 69.0182 114.442 68.5154 113.802L62.9388 106.808C63.0531 108.042 63.0759 109.162 63.0759 112.979C63.0759 114.076 62.2532 114.624 61.4304 114.624C60.6076 114.624 59.762 114.076 59.762 112.979V99.7688C59.762 98.6718 60.6076 98.1232 61.4304 98.1232C62.2532 98.1232 63.0759 98.6718 63.0759 99.7688C63.0759 103.448 63.0531 104.454 62.9388 105.505L68.7668 98.9232C69.2239 98.3975 69.7496 98.1004 70.2524 98.1004C71.0751 98.1004 71.8522 98.7403 71.8522 99.5631C71.8522 99.9516 71.6922 100.363 71.3037 100.797ZM75.8182 101.346C74.8126 101.346 73.9898 100.523 73.9898 99.5174C73.9898 98.5118 74.8126 97.689 75.8182 97.689C76.8238 97.689 77.6466 98.5118 77.6466 99.5174C77.6466 100.523 76.8238 101.346 75.8182 101.346ZM74.1955 113.025V103.997C74.1955 102.946 75.0183 102.374 75.8182 102.374C76.641 102.374 77.4409 102.946 77.4409 103.997V113.025C77.4409 114.076 76.641 114.647 75.8182 114.647C75.0412 114.647 74.1955 114.099 74.1955 113.025ZM90.8567 97.1862C91.6566 97.1862 92.4794 97.7347 92.4794 98.8089V113.025C92.4794 114.099 91.6566 114.647 90.8567 114.647C90.0796 114.647 89.234 114.099 89.234 113.025V112.43C88.6398 113.847 87.0628 114.716 85.0744 114.716C81.4634 114.716 79.315 111.882 79.315 108.476C79.315 104.934 81.5777 102.283 85.2573 102.283C86.7428 102.283 88.3198 102.946 89.234 104.271V98.8089C89.234 97.7347 90.0568 97.1862 90.8567 97.1862ZM85.9201 111.813C87.8399 111.813 89.2112 110.396 89.2112 108.499C89.2112 106.625 87.8399 105.231 85.9201 105.231C83.9774 105.231 82.5833 106.602 82.5833 108.499C82.5833 110.442 83.9774 111.813 85.9201 111.813ZM99.6371 114.716C97.603 114.716 95.9575 114.076 95.0204 112.956C94.7004 112.567 94.5633 112.179 94.5633 111.813C94.5633 110.991 95.2947 110.351 96.0946 110.351C96.5517 110.351 97.0088 110.556 97.3973 111.036C98.0144 111.813 98.6315 112.179 99.6599 112.179C100.711 112.179 101.488 111.79 101.488 111.105C101.488 109.139 94.5633 110.328 94.5633 106.031C94.5633 103.654 96.7345 102.283 99.3628 102.283C101.168 102.283 102.951 102.968 103.728 103.814C104.094 104.203 104.231 104.614 104.231 104.98C104.231 105.688 103.66 106.282 102.905 106.282C102.471 106.282 101.991 106.1 101.534 105.665C100.94 105.117 100.208 104.728 99.3171 104.728C98.4715 104.728 97.7173 105.094 97.7173 105.757C97.7173 107.722 104.757 106.397 104.757 110.876C104.757 113.367 102.562 114.716 99.6371 114.716Z" fill="#303030"/>
<path d="M31.7143 44.1298L41.7679 51.0118M61.9179 41.6037L71.9715 48.4857M66.8336 34.4226L76.8872 41.3046M44.2686 24.2492L50.0135 28.1817M50.0135 28.1817L55.7584 32.1143M50.0135 28.1817L53.9461 22.4368M50.0135 28.1817L46.081 33.9266M49.1593 62.399L56.0013 61.1177M56.0013 61.1177L62.8461 59.8384M56.0013 61.1177L54.7219 54.2729M56.0013 61.1177L57.2855 67.9617M32.4646 18.3837C36.8691 11.9494 39.0713 8.73225 42.0069 7.13073C44.5883 5.72292 47.5491 5.16844 50.465 5.54674C53.7811 5.97749 56.9982 8.17972 63.4325 12.5842L78.3692 22.8088C84.8035 27.2133 88.0207 29.4155 89.6222 32.3511C91.03 34.9325 91.5845 37.8933 91.2062 40.8092C90.7754 44.1253 88.5732 47.3424 84.1687 53.7767L73.9441 68.7134C69.5396 75.1477 67.3374 78.3649 64.4019 79.9664C61.8205 81.3742 58.8596 81.9287 55.9438 81.5504C52.6276 81.1196 49.4105 78.9174 42.9762 74.5129L28.0395 64.2883C21.6052 59.8838 18.388 57.6816 16.7865 54.7461C15.3787 52.1647 14.8242 49.2038 15.2025 46.288C15.6333 42.9718 17.8355 39.7547 22.24 33.3204L32.4646 18.3837Z" stroke="#303030" stroke-width="3.88532" stroke-linecap="round" stroke-linejoin="round"/>
</svg>
