<svg width="224" height="241" viewBox="0 0 224 241" fill="none" xmlns="http://www.w3.org/2000/svg">
<path d="M33.8213 205.536C36.1787 205.536 38.055 207.461 38.055 209.77V236.856C38.055 238.78 36.4674 240.368 34.543 240.368C32.6186 240.368 31.079 238.78 31.079 236.856C31.079 224.251 31.1272 219.392 31.4158 216.842L22.9966 228.533C22.2749 229.543 21.4089 230.024 20.5911 230.024C19.7251 230.024 18.9072 229.543 18.1856 228.533L9.86254 216.842C10.1512 219.344 10.1993 224.107 10.1993 236.856C10.1993 238.78 8.65979 240.368 6.7354 240.368C4.811 240.368 3.22337 238.78 3.22337 236.856V209.77C3.22337 207.461 5.09966 205.536 7.45705 205.536C8.75602 205.536 10.0069 206.114 10.8247 207.22L20.6392 220.883L30.4536 207.22C31.2715 206.114 32.5223 205.536 33.8213 205.536ZM67.0352 214.629C68.7191 214.629 70.451 215.736 70.451 218.045V236.952C70.451 239.165 68.7672 240.368 67.0352 240.368C65.3033 240.368 63.5713 239.165 63.5713 236.952V235.701C62.3205 238.684 59.0009 240.512 54.8153 240.512C47.2139 240.512 42.6916 234.547 42.6916 227.378C42.6916 219.921 47.4545 214.341 55.2002 214.341C58.3273 214.341 61.6469 215.736 63.5713 218.526V218.045C63.5713 215.736 65.3033 214.629 67.0352 214.629ZM56.5954 234.402C60.6366 234.402 63.5232 231.42 63.5232 227.426C63.5232 223.481 60.6366 220.547 56.5954 220.547C52.506 220.547 49.5713 223.433 49.5713 227.426C49.5713 231.516 52.506 234.402 56.5954 234.402ZM85.6613 214.87H89.1252C90.5204 214.87 91.7713 216.072 91.7713 217.564C91.7713 219.055 90.5204 220.258 89.1252 220.258H85.6613V236.952C85.6613 239.213 83.9293 240.368 82.2455 240.368C80.6098 240.368 78.8297 239.213 78.8297 236.952V220.258H77.0977C75.6544 220.258 74.4036 219.055 74.4036 217.564C74.4036 216.072 75.6544 214.87 77.0977 214.87H78.8297V210.588C78.8297 208.327 80.5616 207.172 82.2455 207.172C83.9293 207.172 85.6613 208.327 85.6613 210.588V214.87ZM110.059 214.341C115.352 214.341 120.211 217.708 120.211 225.358V236.808C120.211 239.165 118.479 240.368 116.747 240.368C115.063 240.368 113.283 239.165 113.283 236.808V226.416C113.283 221.557 110.541 220.21 107.943 220.21C104.671 220.21 102.314 222.279 102.314 226.609V236.952C102.314 239.213 100.582 240.368 98.8979 240.368C97.2622 240.368 95.4821 239.213 95.4821 236.952V207.028C95.4821 204.767 97.2141 203.612 98.8979 203.612C100.582 203.612 102.314 204.767 102.314 207.028V218.382C103.901 215.832 106.451 214.341 110.059 214.341ZM150.096 211.213L139.704 222.519L149.904 234.739C150.529 235.509 150.818 236.327 150.818 237.097C150.818 238.877 149.326 240.368 147.354 240.368C146.392 240.368 145.285 239.935 144.227 238.588L132.488 223.866C132.728 226.464 132.776 228.822 132.776 236.856C132.776 239.165 131.044 240.32 129.312 240.32C127.581 240.32 125.8 239.165 125.8 236.856V209.048C125.8 206.739 127.581 205.585 129.312 205.585C131.044 205.585 132.776 206.739 132.776 209.048C132.776 216.794 132.728 218.911 132.488 221.124L144.756 207.268C145.718 206.162 146.824 205.536 147.883 205.536C149.615 205.536 151.251 206.883 151.251 208.615C151.251 209.433 150.914 210.299 150.096 211.213ZM159.599 212.368C157.482 212.368 155.75 210.636 155.75 208.519C155.75 206.402 157.482 204.67 159.599 204.67C161.716 204.67 163.448 206.402 163.448 208.519C163.448 210.636 161.716 212.368 159.599 212.368ZM156.183 236.952V217.949C156.183 215.736 157.915 214.533 159.599 214.533C161.331 214.533 163.015 215.736 163.015 217.949V236.952C163.015 239.165 161.331 240.368 159.599 240.368C157.963 240.368 156.183 239.213 156.183 236.952ZM191.256 203.612C192.939 203.612 194.671 204.767 194.671 207.028V236.952C194.671 239.213 192.939 240.368 191.256 240.368C189.62 240.368 187.84 239.213 187.84 236.952V235.701C186.589 238.684 183.269 240.512 179.084 240.512C171.482 240.512 166.96 234.547 166.96 227.378C166.96 219.921 171.723 214.341 179.469 214.341C182.596 214.341 185.915 215.736 187.84 218.526V207.028C187.84 204.767 189.572 203.612 191.256 203.612ZM180.864 234.402C184.905 234.402 187.792 231.42 187.792 227.426C187.792 223.481 184.905 220.547 180.864 220.547C176.774 220.547 173.84 223.433 173.84 227.426C173.84 231.516 176.774 234.402 180.864 234.402ZM209.738 240.512C205.457 240.512 201.993 239.165 200.02 236.808C199.347 235.99 199.058 235.172 199.058 234.402C199.058 232.67 200.598 231.323 202.281 231.323C203.244 231.323 204.206 231.756 205.024 232.767C206.323 234.402 207.622 235.172 209.787 235.172C212 235.172 213.635 234.354 213.635 232.911C213.635 228.774 199.058 231.275 199.058 222.231C199.058 217.227 203.628 214.341 209.161 214.341C212.962 214.341 216.714 215.784 218.35 217.564C219.12 218.382 219.409 219.248 219.409 220.018C219.409 221.509 218.206 222.76 216.618 222.76C215.704 222.76 214.694 222.375 213.732 221.461C212.481 220.306 210.941 219.488 209.065 219.488C207.285 219.488 205.697 220.258 205.697 221.653C205.697 225.791 220.515 223 220.515 232.43C220.515 237.674 215.896 240.512 209.738 240.512Z" fill="#303030"/>
<path d="M66.7587 93.0271L87.9217 107.514M130.338 87.7096L151.501 102.196M140.686 72.5932L161.849 87.0799M93.1858 51.1779L105.279 59.4561M105.279 59.4561L117.372 67.7342M105.279 59.4561L113.557 47.3629M105.279 59.4561L97.0008 71.5492M103.481 131.484L117.883 128.787M117.883 128.787L132.292 126.094M117.883 128.787L115.19 114.379M117.883 128.787L120.587 143.194M68.3381 38.8309C77.6096 25.2866 82.2454 18.5144 88.4247 15.1432C93.8586 12.1797 100.091 11.0125 106.229 11.8088C113.21 12.7156 119.982 17.3513 133.526 26.6228L164.968 48.146C178.513 57.4175 185.285 62.0532 188.656 68.2326C191.62 73.6665 192.787 79.899 191.99 86.0371C191.084 93.0176 186.448 99.7897 177.176 113.334L155.653 144.776C146.382 158.321 141.746 165.093 135.567 168.464C130.133 171.427 123.9 172.595 117.762 171.798C110.782 170.892 104.01 166.256 90.4652 156.984L59.023 135.461C45.4787 126.19 38.7065 121.554 35.3353 115.375C32.3718 109.941 31.2046 103.708 32.001 97.5701C32.9077 90.5896 37.5435 83.8174 46.815 70.2731L68.3381 38.8309Z" stroke="#303030" stroke-width="8.17869" stroke-linecap="round" stroke-linejoin="round"/>
</svg>
