<svg width="793" height="614" viewBox="0 0 793 614" fill="none" xmlns="http://www.w3.org/2000/svg">
<mask id="mask0_12_18" style="mask-type:luminance" maskUnits="userSpaceOnUse" x="0" y="0" width="793" height="614">
<path d="M99.9656 607.055C30.9476 597.752 -22.4258 533.147 10.8318 468.224C52.5185 386.847 28.5333 363.871 6.06771 265.299C-16.3983 166.729 58.1259 44.9316 167.822 73.1698C284.644 103.242 314.599 39.756 413.448 11.3541C512.298 -17.0477 638.107 11.3541 687.532 99.9011C736.957 188.448 693.828 298.317 752.28 341.657C796.741 374.624 799.961 434.249 784.679 481.843C765.405 541.87 719.867 581.366 655.661 596.465C615.056 606.013 573.239 605.829 531.751 608.169C492.233 610.397 452.674 612.799 413.091 613.652C364.674 614.695 316.42 612.703 268.057 610.906C241.915 609.935 215.671 608.795 189.52 608.551C159.669 608.271 129.668 611.058 99.9656 607.055Z" fill="white"/>
</mask>
<g mask="url(#mask0_12_18)">
<path d="M99.9656 607.055C30.9476 597.752 -22.4258 533.147 10.8318 468.224C52.5185 386.847 28.5333 363.871 6.06771 265.299C-16.3983 166.729 58.1259 44.9316 167.822 73.1698C284.644 103.242 314.599 39.756 413.448 11.3541C512.298 -17.0477 638.107 11.3541 687.532 99.9011C736.957 188.448 693.828 298.317 752.28 341.657C796.741 374.624 799.961 434.249 784.679 481.843C765.405 541.87 719.867 581.366 655.661 596.465C615.056 606.013 573.239 605.829 531.751 608.169C492.233 610.397 452.674 612.799 413.091 613.652C364.674 614.695 316.42 612.703 268.057 610.906C241.915 609.935 215.671 608.795 189.52 608.551C159.669 608.271 129.668 611.058 99.9656 607.055Z" fill="#BBE2EC" fill-opacity="0.5"/>
</g>
<mask id="mask1_12_18" style="mask-type:luminance" maskUnits="userSpaceOnUse" x="0" y="0" width="793" height="614">
<path d="M99.9656 607.055C30.9476 597.752 -22.4258 533.147 10.8318 468.224C52.5185 386.847 28.5333 363.871 6.06771 265.299C-16.3983 166.729 58.1259 44.9316 167.822 73.1698C284.644 103.242 314.599 39.756 413.448 11.3541C512.298 -17.0477 638.107 11.3541 687.532 99.9011C736.957 188.448 693.828 298.317 752.28 341.657C796.741 374.624 799.961 434.249 784.679 481.843C765.405 541.87 719.867 581.366 655.661 596.465C615.056 606.013 573.239 605.829 531.751 608.169C492.233 610.397 452.674 612.799 413.091 613.652C364.674 614.695 316.42 612.703 268.057 610.906C241.915 609.935 215.671 608.795 189.52 608.551C159.669 608.271 129.668 611.058 99.9656 607.055Z" fill="white"/>
</mask>
<g mask="url(#mask1_12_18)">
<path d="M688.394 426.22C665.372 464.732 606.568 507.489 599.624 514.168C598.95 514.817 600.012 518.146 602.35 523.403C608.657 537.618 624.27 565.962 640.063 593.727C645.78 603.775 651.517 613.744 656.848 622.941C658.164 625.215 659.453 627.444 660.715 629.61C671.04 647.374 679.25 661.262 681.758 665.491C671.205 666.84 660.394 668.168 649.345 669.474L579.013 675.079C579.013 675.079 564.492 640.435 548.821 598.702C547.427 594.974 546.018 591.19 544.605 587.366C543.821 585.239 543.035 583.098 542.255 580.951C536.126 564.139 530.11 546.835 524.989 530.661C515.26 499.921 508.774 473.28 510.943 461.901C517.593 427.016 563.306 338.434 574.789 347.946C582.313 354.174 579.304 362.497 574.363 376.47C566.409 398.962 560.866 427.807 570.355 425.569C585.192 422.065 605.19 383.42 603.743 368.47C602.971 360.545 598.458 325.237 593.097 316.073C583.572 299.804 576.756 286.829 586.508 282.366C588.998 281.23 600.932 295.216 605.925 301.698C617.004 316.08 628.565 334.187 628.446 337.421C628.446 337.421 630.171 319.557 627.986 313.103C622.849 297.909 621.609 284.003 629.313 283.102C634.188 282.534 647.648 300.782 654.612 334.936C661.569 369.085 658.573 375.818 660.107 374.927C660.706 374.582 663.014 361.793 664.394 347.253C665.309 337.636 667.105 327.84 666.789 318.582C666.401 307.223 673.609 296.709 679.759 297.413C683.993 297.896 683.619 374.914 684.024 383.273C684.024 383.273 692.925 350.998 702.738 354.655C706.03 355.884 698.763 408.872 688.394 426.22Z" fill="#F1A38D"/>
<path d="M727.216 659.321C712.681 661.417 697.505 663.477 681.758 665.491C671.205 666.84 660.394 668.167 649.346 669.473C623.915 672.469 597.246 675.327 569.622 678C562.458 657.149 545.372 619.347 536.232 599.546C532.606 591.674 530.229 586.645 530.229 586.645C530.229 586.645 492.331 572.902 494.041 546.941C495.261 528.359 507.329 523.953 524.99 530.66L524.996 530.66C531.505 533.135 538.495 531.378 547.052 525.965C577.099 506.946 574.053 525.341 595.992 524.818C598.306 524.761 600.391 524.221 602.35 523.403C611.405 519.632 617.915 509.973 633.349 515.243C654.88 522.6 626.941 569.598 626.941 569.598L653.308 593.189L727.216 659.321Z" fill="#40A2E3"/>
<path d="M541.646 582.1C542.384 579.905 544.876 578.695 547.212 579.398C549.549 580.101 550.846 582.451 550.108 584.646C549.371 586.841 546.879 588.051 544.542 587.348C542.206 586.644 540.909 584.295 541.646 582.1Z" fill="white"/>
<path d="M627.775 596.473C628.513 594.278 631.005 593.068 633.341 593.771C635.678 594.474 636.974 596.824 636.237 599.019C635.5 601.214 633.007 602.424 630.671 601.721C628.335 601.017 627.038 598.668 627.775 596.473Z" fill="white"/>
<path d="M605.392 576.774C606.129 574.579 608.621 573.369 610.958 574.072C613.294 574.775 614.591 577.125 613.853 579.32C613.117 581.515 610.624 582.725 608.288 582.022C605.952 581.319 604.655 578.969 605.392 576.774Z" fill="white"/>
<path d="M600.061 610.789C600.798 608.595 603.29 607.385 605.627 608.088C607.963 608.791 609.26 611.141 608.523 613.336C607.786 615.531 605.294 616.74 602.958 616.037C600.62 615.334 599.324 612.985 600.061 610.789Z" fill="white"/>
<path d="M575.714 596.43C576.451 594.235 578.943 593.025 581.279 593.728C583.616 594.432 584.912 596.781 584.176 598.976C583.439 601.171 580.947 602.381 578.61 601.678C576.273 600.975 574.977 598.625 575.714 596.43Z" fill="white"/>
<path d="M572.875 566.442C573.613 564.247 576.105 563.038 578.441 563.741C580.778 564.443 582.074 566.793 581.337 568.988C580.6 571.183 578.108 572.393 575.772 571.69C573.435 570.987 572.138 568.637 572.875 566.442Z" fill="white"/>
<path d="M572.657 539.352C573.394 537.157 575.886 535.948 578.222 536.65C580.559 537.353 581.855 539.703 581.118 541.899C580.381 544.094 577.889 545.303 575.553 544.6C573.216 543.896 571.919 541.547 572.657 539.352Z" fill="white"/>
<path d="M512.414 551.557C513.151 549.362 515.643 548.153 517.98 548.856C520.316 549.559 521.613 551.909 520.876 554.104C520.138 556.299 517.647 557.508 515.31 556.805C512.973 556.102 511.677 553.752 512.414 551.557Z" fill="white"/>
<path d="M545.776 555.933C546.512 553.738 549.005 552.529 551.341 553.232C553.678 553.935 554.975 556.284 554.237 558.48C553.5 560.675 551.008 561.884 548.671 561.181C546.335 560.478 545.039 558.128 545.776 555.933Z" fill="white"/>
<path d="M601.441 553.865C602.179 551.67 604.67 550.461 607.007 551.164C609.343 551.867 610.64 554.217 609.902 556.412C609.165 558.607 606.673 559.816 604.337 559.113C602 558.41 600.704 556.061 601.441 553.865Z" fill="white"/>
<path d="M618.457 530.941C619.194 528.746 621.686 527.536 624.022 528.239C626.359 528.942 627.656 531.292 626.918 533.487C626.181 535.682 623.689 536.892 621.353 536.189C619.016 535.486 617.719 533.136 618.457 530.941Z" fill="white"/>
</g>
<mask id="mask2_12_18" style="mask-type:luminance" maskUnits="userSpaceOnUse" x="0" y="0" width="793" height="614">
<path d="M99.9656 607.055C30.9476 597.752 -22.4258 533.147 10.8318 468.224C52.5185 386.847 28.5333 363.871 6.06771 265.299C-16.3983 166.729 58.1259 44.9316 167.822 73.1698C284.644 103.242 314.599 39.756 413.448 11.3541C512.298 -17.0477 638.107 11.3541 687.532 99.9011C736.957 188.448 693.828 298.317 752.28 341.657C796.741 374.624 799.961 434.249 784.679 481.843C765.405 541.87 719.867 581.366 655.661 596.465C615.056 606.013 573.239 605.829 531.751 608.169C492.233 610.397 452.674 612.799 413.091 613.652C364.674 614.695 316.42 612.703 268.057 610.906C241.915 609.935 215.671 608.795 189.52 608.551C159.669 608.271 129.668 611.058 99.9656 607.055Z" fill="white"/>
</mask>
<g mask="url(#mask2_12_18)">
<path d="M87.3896 418.996C107.523 458.933 163.038 505.466 169.474 512.587C170.099 513.278 168.795 516.529 166.076 521.62C158.738 535.383 141.077 562.628 123.28 589.284C116.838 598.931 110.382 608.497 104.387 617.32C102.908 619.501 101.457 621.641 100.039 623.717C88.4319 640.757 79.2196 654.07 76.4067 658.124C86.8353 660.165 97.5227 662.203 108.448 664.235L178.197 674.465C178.197 674.465 195.232 640.864 213.935 600.266C215.599 596.639 217.284 592.957 218.975 589.236C219.913 587.166 220.854 585.082 221.791 582.991C229.141 566.624 236.416 549.76 242.714 533.962C254.681 503.939 263.112 477.79 261.785 466.296C257.718 431.057 218.632 339.675 206.477 348.405C198.514 354.122 200.903 362.624 204.804 376.889C211.083 399.851 214.491 428.991 205.19 426.134C190.646 421.658 173.54 381.788 176.084 366.97C177.437 359.115 184.536 324.191 190.558 315.403C201.257 299.801 209.011 287.308 199.611 282.212C197.21 280.914 184.276 294.08 178.818 300.216C166.709 313.833 153.844 331.132 153.724 334.366C153.724 334.366 153.318 316.433 155.973 310.139C162.214 295.32 164.475 281.53 156.856 280.123C152.034 279.235 137.264 296.55 127.805 330.162C118.352 363.769 120.845 370.683 119.381 369.694C118.809 369.31 117.448 356.4 117.14 341.804C116.935 332.15 115.864 322.259 116.86 313.045C118.084 301.739 111.667 290.775 105.479 291.071C101.22 291.274 95.9268 368.13 94.9087 376.442C94.9087 376.442 88.4035 343.657 78.3456 346.658C74.9711 347.668 78.3226 401.006 87.3896 418.996Z" fill="#F1A38D"/>
<path d="M31.513 648.97C45.8589 652.02 60.846 655.076 76.4063 658.124C86.8349 660.165 97.5222 662.203 108.448 664.235C133.596 668.901 159.99 673.511 187.35 678C196.031 657.672 215.856 621.089 226.431 601.939C230.628 594.326 233.369 589.466 233.369 589.466C233.369 589.466 272.186 578.257 272.39 552.246C272.54 533.628 260.826 528.437 242.714 533.963L242.709 533.962C236.034 536.001 229.189 533.788 221.051 527.823C192.476 506.869 194.162 525.42 172.315 523.451C170.01 523.242 167.97 522.565 166.076 521.62C157.32 517.261 151.537 507.196 135.752 511.435C113.733 517.354 138.146 566.081 138.146 566.081L110.107 587.875L31.513 648.97Z" fill="#40A2E3"/>
<path d="M222.313 584.178C221.739 581.94 219.342 580.569 216.959 581.116C214.577 581.663 213.11 583.922 213.685 586.16C214.259 588.399 216.655 589.77 219.038 589.222C221.421 588.675 222.887 586.417 222.313 584.178Z" fill="white"/>
<path d="M135.336 592.834C134.762 590.596 132.365 589.225 129.982 589.773C127.599 590.32 126.133 592.578 126.707 594.817C127.281 597.055 129.678 598.426 132.061 597.879C134.444 597.331 135.91 595.073 135.336 592.834Z" fill="white"/>
<path d="M159.114 574.66C158.54 572.422 156.143 571.051 153.76 571.598C151.378 572.146 149.912 574.404 150.485 576.642C151.059 578.881 153.456 580.252 155.839 579.704C158.222 579.157 159.688 576.899 159.114 574.66Z" fill="white"/>
<path d="M161.929 608.945C161.356 606.706 158.959 605.335 156.576 605.883C154.193 606.43 152.727 608.688 153.301 610.927C153.875 613.166 156.272 614.536 158.654 613.989C161.037 613.442 162.503 611.183 161.929 608.945Z" fill="white"/>
<path d="M187.274 596.226C186.7 593.988 184.304 592.617 181.921 593.164C179.538 593.712 178.072 595.97 178.646 598.208C179.219 600.447 181.616 601.818 183.999 601.27C186.382 600.724 187.848 598.465 187.274 596.226Z" fill="white"/>
<path d="M192.312 566.499C191.738 564.26 189.341 562.889 186.958 563.436C184.575 563.984 183.109 566.242 183.683 568.48C184.257 570.719 186.654 572.09 189.037 571.543C191.419 570.995 192.886 568.737 192.312 566.499Z" fill="white"/>
<path d="M194.523 539.489C193.949 537.25 191.552 535.879 189.17 536.426C186.787 536.974 185.321 539.232 185.895 541.471C186.469 543.709 188.866 545.08 191.248 544.533C193.631 543.986 195.097 541.727 194.523 539.489Z" fill="white"/>
<path d="M253.721 555.639C253.148 553.4 250.75 552.029 248.368 552.577C245.985 553.124 244.519 555.382 245.093 557.621C245.667 559.859 248.064 561.23 250.447 560.683C252.829 560.135 254.295 557.877 253.721 555.639Z" fill="white"/>
<path d="M220.119 557.803C219.545 555.565 217.148 554.194 214.766 554.741C212.383 555.289 210.916 557.547 211.491 559.785C212.065 562.023 214.461 563.394 216.844 562.847C219.227 562.3 220.693 560.042 220.119 557.803Z" fill="white"/>
<path d="M164.74 552.068C164.167 549.829 161.77 548.458 159.387 549.006C157.004 549.553 155.538 551.811 156.112 554.05C156.686 556.288 159.083 557.659 161.466 557.112C163.848 556.565 165.315 554.306 164.74 552.068Z" fill="white"/>
<path d="M149.453 528.077C148.879 525.838 146.482 524.467 144.1 525.014C141.717 525.561 140.251 527.82 140.825 530.058C141.399 532.297 143.796 533.668 146.178 533.121C148.561 532.574 150.027 530.315 149.453 528.077Z" fill="white"/>
</g>
<mask id="mask3_12_18" style="mask-type:luminance" maskUnits="userSpaceOnUse" x="0" y="0" width="793" height="614">
<path d="M99.9656 607.055C30.9476 597.752 -22.4258 533.147 10.8318 468.224C52.5185 386.847 28.5333 363.871 6.06771 265.299C-16.3983 166.729 58.1259 44.9316 167.822 73.1698C284.644 103.242 314.599 39.756 413.448 11.3541C512.298 -17.0477 638.107 11.3541 687.532 99.9011C736.957 188.448 693.828 298.317 752.28 341.657C796.741 374.624 799.961 434.249 784.679 481.843C765.405 541.87 719.867 581.366 655.661 596.465C615.056 606.013 573.239 605.829 531.751 608.169C492.233 610.397 452.674 612.799 413.091 613.652C364.674 614.695 316.42 612.703 268.057 610.906C241.915 609.935 215.671 608.795 189.52 608.551C159.669 608.271 129.668 611.058 99.9656 607.055Z" fill="white"/>
</mask>
<g mask="url(#mask3_12_18)">
<path d="M419.563 226.54L418.57 224.197L517.081 186.779V91.9819H519.747V188.487L419.563 226.54Z" fill="#050731"/>
<path d="M518.953 186.482L517.844 188.778L616.287 231.411L617.396 229.116L518.953 186.482Z" fill="#050731"/>
<path d="M518.413 121.867L578.348 142.498V213.591L518.413 235.961V163.542V121.867Z" fill="#EB9D97"/>
<path d="M518.413 121.867L458.479 142.498V213.591L518.413 235.961V163.542V121.867Z" fill="#CD655C"/>
<path d="M458.479 142.498L518.413 163.542L578.348 142.498L518.413 121.867L458.479 142.498Z" fill="#E97A6D"/>
</g>
<mask id="mask4_12_18" style="mask-type:luminance" maskUnits="userSpaceOnUse" x="0" y="0" width="793" height="614">
<path d="M99.9656 607.055C30.9476 597.752 -22.4258 533.147 10.8318 468.224C52.5185 386.847 28.5333 363.871 6.06771 265.299C-16.3983 166.729 58.1259 44.9316 167.822 73.1698C284.644 103.242 314.599 39.756 413.448 11.3541C512.298 -17.0477 638.107 11.3541 687.532 99.9011C736.957 188.448 693.828 298.317 752.28 341.657C796.741 374.624 799.961 434.249 784.679 481.843C765.405 541.87 719.867 581.366 655.661 596.465C615.056 606.013 573.239 605.829 531.751 608.169C492.233 610.397 452.674 612.799 413.091 613.652C364.674 614.695 316.42 612.703 268.057 610.906C241.915 609.935 215.671 608.795 189.52 608.551C159.669 608.271 129.668 611.058 99.9656 607.055Z" fill="white"/>
</mask>
<g mask="url(#mask4_12_18)">
<path d="M307.108 338.722L403.406 332.073L444.557 291.7L353.93 298.726L307.108 338.722Z" fill="#A2BCEA"/>
<path d="M328.988 427.735L427.168 426.964L465.702 377.724L374.456 382.233L328.988 427.735Z" fill="#BFD0F5"/>
<path d="M403.406 332.073L427.168 426.964L465.702 377.724L444.557 291.7L403.406 332.073Z" fill="#7191CD"/>
<path d="M307.108 338.722L403.406 332.073L427.168 426.964L328.988 427.735L307.108 338.722Z" fill="#447FE0"/>
<path d="M404.476 333.713L278.368 342.421L340.459 289.383L340.779 289.358L459.031 280.189L404.476 333.713ZM283.746 340.247L403.614 331.97L454.171 282.369L341.253 291.124L283.746 340.247Z" fill="#1F53A3"/>
<path d="M433.94 456.12L403.002 332.571L457.13 279.466L484.63 391.347L433.94 456.12ZM405.088 333.112L434.845 451.945L482.583 390.945L456.072 283.091L405.088 333.112Z" fill="#1F53A3"/>
<path d="M435.59 454.922L308.249 455.922L279.881 340.515L404.781 331.89L404.968 332.635L435.59 454.922ZM309.752 454.113L433.195 453.143L403.308 333.793L282.232 342.153L309.752 454.113Z" fill="#1F53A3"/>
<path d="M346.521 289.004C347.196 291.751 345.392 294.496 342.492 295.135C339.591 295.774 336.693 294.066 336.018 291.32C335.343 288.573 337.147 285.828 340.047 285.189C342.947 284.55 345.846 286.258 346.521 289.004Z" fill="#1F53A3"/>
<path d="M314.252 453.859C314.927 456.606 313.123 459.351 310.223 459.99C307.323 460.629 304.424 458.921 303.749 456.175C303.074 453.428 304.878 450.683 307.778 450.044C310.679 449.405 313.577 451.113 314.252 453.859Z" fill="#1F53A3"/>
<path d="M461.866 280.178C462.541 282.924 460.737 285.669 457.837 286.308C454.937 286.948 452.038 285.239 451.363 282.493C450.688 279.746 452.492 277.001 455.392 276.362C458.293 275.723 461.191 277.431 461.866 280.178Z" fill="#1F53A3"/>
<path d="M488.88 390.078C489.555 392.825 487.751 395.57 484.851 396.209C481.951 396.848 479.052 395.14 478.377 392.393C477.702 389.647 479.506 386.902 482.406 386.263C485.307 385.623 488.205 387.332 488.88 390.078Z" fill="#1F53A3"/>
<path d="M439.644 452.875C440.319 455.622 438.515 458.366 435.615 459.006C432.715 459.645 429.816 457.937 429.141 455.19C428.466 452.444 430.27 449.699 433.17 449.06C436.071 448.42 438.969 450.129 439.644 452.875Z" fill="#1F53A3"/>
<path d="M404.575 337.831C407.552 337.831 409.966 335.545 409.966 332.725C409.966 329.905 407.552 327.619 404.575 327.619C401.597 327.619 399.183 329.905 399.183 332.725C399.183 335.545 401.597 337.831 404.575 337.831Z" fill="#1F53A3"/>
<path d="M285.036 344.813C287.062 342.746 286.935 339.515 284.752 337.597C282.57 335.678 279.158 335.798 277.132 337.864C275.106 339.931 275.232 343.162 277.415 345.081C279.598 347 283.01 346.88 285.036 344.813Z" fill="#1F53A3"/>
</g>
<mask id="mask5_12_18" style="mask-type:luminance" maskUnits="userSpaceOnUse" x="0" y="0" width="793" height="614">
<path d="M99.9656 607.055C30.9476 597.752 -22.4259 533.147 10.8318 468.224C52.5185 386.847 28.5333 363.871 6.06771 265.299C-16.3983 166.729 58.1259 44.9316 167.822 73.1698C284.644 103.242 314.599 39.756 413.448 11.3541C512.299 -17.0477 638.107 11.3541 687.532 99.9011C736.957 188.448 693.828 298.317 752.28 341.657C796.741 374.624 799.961 434.249 784.679 481.843C765.405 541.87 719.867 581.366 655.661 596.465C615.056 606.013 573.239 605.829 531.751 608.169C492.233 610.397 452.674 612.799 413.091 613.652C364.674 614.695 316.42 612.703 268.057 610.906C241.915 609.935 215.671 608.795 189.52 608.551C159.669 608.271 129.668 611.058 99.9656 607.055Z" fill="white"/>
</mask>
<g mask="url(#mask5_12_18)">
<path d="M226.884 264.442C185.73 251.928 162.999 210.041 176.214 171.069C189.43 132.097 233.663 110.573 274.818 123.087C315.973 135.602 338.703 177.489 325.488 216.461C312.272 255.432 268.039 276.957 226.884 264.442ZM274.372 124.403C233.984 112.121 190.574 133.245 177.604 171.492C164.635 209.738 186.942 250.845 227.33 263.127C267.719 275.408 311.129 254.284 324.098 216.038C337.068 177.792 314.761 136.684 274.372 124.403Z" fill="#40A2E3"/>
<path d="M243.372 215.97C243.357 215.965 243.341 215.961 243.326 215.956L242.428 215.681L242.68 214.947L243.575 215.221C244.442 215.492 245.285 215.737 246.136 215.986L245.896 216.723C245.056 216.477 244.215 216.226 243.372 215.97ZM238.975 214.592C237.833 214.223 236.678 213.841 235.54 213.455L235.814 212.729C236.948 213.113 238.1 213.494 239.238 213.862L238.975 214.592ZM249.379 217.718L249.608 216.978C250.775 217.302 251.949 217.619 253.096 217.921L252.878 218.664C251.727 218.361 250.55 218.043 249.379 217.718ZM232.122 212.271C230.985 211.867 229.842 211.452 228.725 211.038L229.022 210.319C230.136 210.733 231.275 211.146 232.408 211.548L232.122 212.271ZM256.392 219.561L256.598 218.815C257.761 219.103 258.943 219.387 260.113 219.658L259.92 220.408C258.746 220.135 257.559 219.85 256.392 219.561ZM225.346 209.755C224.222 209.318 223.092 208.869 221.99 208.421L222.311 207.712C223.41 208.159 224.535 208.606 225.655 209.041L225.346 209.755ZM263.461 221.202L263.643 220.449C264.824 220.705 266.016 220.953 267.185 221.186L267.017 221.941C265.843 221.706 264.647 221.458 263.461 221.202ZM218.657 207.034C217.549 206.562 216.436 206.077 215.35 205.592L215.697 204.894C216.779 205.377 217.887 205.86 218.991 206.33L218.657 207.034ZM270.585 222.623L270.739 221.865C271.937 222.084 273.137 222.292 274.306 222.485L274.166 223.245C272.992 223.052 271.788 222.842 270.585 222.623ZM212.071 204.094C210.981 203.584 209.888 203.06 208.823 202.536L209.198 201.851C210.259 202.373 211.347 202.895 212.432 203.403L212.071 204.094ZM277.759 223.804L277.884 223.041C279.088 223.217 280.296 223.381 281.472 223.53L281.364 224.294C280.182 224.145 278.97 223.98 277.759 223.804ZM205.608 200.914C204.534 200.357 203.465 199.789 202.433 199.224L202.84 198.556C203.867 199.118 204.93 199.684 205.999 200.237L205.608 200.914ZM284.98 224.712L285.069 223.945C286.281 224.072 287.494 224.185 288.675 224.28L288.605 225.049C287.418 224.952 286.198 224.839 284.98 224.712ZM199.301 197.46C198.249 196.849 197.212 196.229 196.22 195.615L196.666 194.969C197.652 195.579 198.681 196.196 199.727 196.802L199.301 197.46ZM292.241 225.297L292.288 224.527C293.51 224.594 294.727 224.645 295.906 224.675L295.883 225.446C294.696 225.416 293.47 225.366 292.241 225.297ZM193.2 193.68C192.18 193.003 191.188 192.317 190.252 191.643L190.745 191.029C191.673 191.698 192.656 192.377 193.667 193.049L193.2 193.68ZM299.53 225.482L299.524 224.71C300.76 224.701 301.976 224.669 303.139 224.613L303.179 225.384C302.005 225.44 300.778 225.473 299.53 225.482ZM187.396 189.489C186.428 188.722 185.507 187.951 184.657 187.195L185.215 186.633C186.053 187.378 186.963 188.14 187.919 188.897L187.396 189.489ZM306.823 225.126L306.74 224.359C307.981 224.24 309.184 224.089 310.315 223.91L310.45 224.67C309.301 224.852 308.081 225.006 306.823 225.126ZM182.079 184.733C181.207 183.832 180.418 182.932 179.734 182.058L180.388 181.599C181.056 182.451 181.826 183.33 182.68 184.212L182.079 184.733ZM314.037 223.957L313.833 223.21C315.063 222.909 316.209 222.561 317.239 222.174L317.539 222.891C316.478 223.289 315.3 223.648 314.037 223.957ZM177.755 179.111C177.131 177.985 176.68 176.88 176.416 175.828L177.209 175.65C177.457 176.639 177.883 177.683 178.476 178.752L177.755 179.111ZM320.844 221.315L320.404 220.666C321.467 220.02 322.35 219.293 323.026 218.507L323.657 218.994C322.927 219.844 321.98 220.625 320.844 221.315ZM176.237 172.283C176.303 171.902 176.398 171.525 176.521 171.162C176.896 170.056 177.541 169.028 178.438 168.106L179.037 168.629C178.221 169.468 177.636 170.4 177.297 171.398C177.186 171.725 177.1 172.064 177.041 172.406L176.237 172.283ZM324.553 215.631C324.809 214.622 324.828 213.532 324.608 212.394L325.409 212.255C325.65 213.5 325.628 214.697 325.345 215.811L324.553 215.631ZM181.777 166.585L181.363 165.92C182.342 165.373 183.468 164.875 184.711 164.44L184.994 165.163C183.797 165.583 182.714 166.061 181.777 166.585ZM323.481 209.256C323.004 208.324 322.388 207.353 321.65 206.369L322.314 205.922C323.078 206.941 323.718 207.95 324.214 208.919L323.481 209.256ZM188.424 164.189L188.233 163.439C189.354 163.183 190.564 162.958 191.829 162.772L191.955 163.534C190.712 163.717 189.524 163.938 188.424 164.189ZM319.407 203.721C318.652 202.918 317.81 202.094 316.904 201.271L317.468 200.715C318.389 201.551 319.246 202.39 320.015 203.208L319.407 203.721ZM195.534 163.118L195.459 162.35C196.622 162.248 197.849 162.171 199.104 162.12L199.139 162.891C197.897 162.941 196.684 163.018 195.534 163.118ZM314.224 198.984C313.34 198.273 312.395 197.549 311.414 196.832L311.912 196.221C312.903 196.945 313.858 197.677 314.752 198.396L314.224 198.984ZM202.755 162.817L202.754 162.046C203.931 162.043 205.158 162.062 206.4 162.1L206.374 162.871C205.141 162.833 203.923 162.815 202.755 162.817ZM308.506 194.796C307.551 194.154 306.546 193.503 305.518 192.861L305.967 192.217C307.002 192.864 308.014 193.52 308.977 194.167L308.506 194.796ZM209.991 163.035L210.042 162.266C211.221 162.336 212.444 162.425 213.676 162.529L213.603 163.298C212.378 163.193 211.163 163.106 209.991 163.035ZM302.466 191.014C301.467 190.429 300.422 189.835 299.361 189.249L299.772 188.582C300.839 189.172 301.89 189.769 302.895 190.359L302.466 191.014ZM217.207 163.646L217.3 162.88C218.488 163.008 219.704 163.153 220.914 163.309L220.804 164.074C219.6 163.918 218.39 163.774 217.207 163.646ZM296.209 187.556C295.169 187.012 294.095 186.466 293.017 185.931L293.394 185.248C294.479 185.785 295.557 186.335 296.603 186.88L296.209 187.556ZM224.391 164.573L224.517 163.811C225.699 163.987 226.908 164.178 228.109 164.38L227.966 165.14C226.77 164.939 225.567 164.748 224.391 164.573ZM289.788 184.37C288.72 183.867 287.623 183.362 286.527 182.869L286.877 182.172C287.977 182.667 289.079 183.174 290.151 183.68L289.788 184.37ZM231.531 165.769L231.687 165.012C232.858 165.229 234.058 165.461 235.253 165.703L235.083 166.457C233.892 166.217 232.697 165.985 231.531 165.769ZM283.238 181.425C282.149 180.958 281.034 180.49 279.922 180.035L280.245 179.327C281.362 179.784 282.481 180.253 283.574 180.722L283.238 181.425ZM238.623 167.203L238.806 166.452C239.98 166.708 241.171 166.978 242.346 167.254L242.15 168.003C240.979 167.728 239.792 167.459 238.623 167.203ZM276.582 178.698C275.48 178.267 274.349 177.834 273.219 177.411L273.518 176.694C274.652 177.118 275.787 177.552 276.893 177.985L276.582 178.698ZM245.664 168.854L245.872 168.108C247.03 168.398 248.212 168.702 249.383 169.013L249.164 169.756C247.996 169.446 246.818 169.143 245.664 168.854ZM269.836 176.174C268.709 175.772 267.564 175.372 266.432 174.986L266.708 174.261C267.844 174.648 268.993 175.049 270.123 175.453L269.836 176.174ZM252.648 170.707L252.88 169.968C254.034 170.291 255.205 170.629 256.361 170.97L256.118 171.706C254.966 171.366 253.799 171.03 252.648 170.707ZM263.011 173.846C261.871 173.475 260.715 173.107 259.573 172.753L259.827 172.02C260.972 172.375 262.133 172.744 263.276 173.116L263.011 173.846Z" fill="#40A2E3"/>
<path d="M226.789 264.106C225.587 263.714 224.461 263.083 223.441 262.232L224 261.631C224.936 262.413 225.967 262.991 227.064 263.349L226.789 264.106ZM230.652 264.575L230.596 263.776C231.72 263.705 232.908 263.45 234.129 263.018L234.425 263.769C233.127 264.227 231.858 264.498 230.652 264.575ZM220.955 259.431C220.314 258.483 219.726 257.395 219.206 256.197L219.988 255.893C220.489 257.046 221.054 258.091 221.667 258.999L220.955 259.431ZM237.87 262.163L237.432 261.478C238.422 260.91 239.444 260.231 240.473 259.46L240.998 260.088C239.942 260.879 238.89 261.577 237.87 262.163ZM217.983 252.772C217.664 251.676 217.38 250.494 217.139 249.258L217.971 249.113C218.207 250.326 218.486 251.486 218.799 252.559L217.983 252.772ZM243.868 257.719L243.286 257.139C244.148 256.363 245.03 255.513 245.907 254.61L246.529 255.152C245.64 256.068 244.744 256.932 243.868 257.719ZM216.578 245.7C216.437 244.557 216.324 243.353 216.241 242.122L217.085 242.071C217.167 243.288 217.279 244.478 217.418 245.607L216.578 245.7ZM249.019 252.441L248.367 251.932C249.137 251.049 249.918 250.109 250.689 249.139L251.365 249.622C250.586 250.6 249.797 251.549 249.019 252.441ZM216.085 238.536C216.06 237.375 216.059 236.168 216.082 234.949L216.927 234.963C216.905 236.172 216.906 237.368 216.93 238.52L216.085 238.536ZM253.584 246.715L252.89 246.258C253.588 245.307 254.292 244.312 254.983 243.302L255.692 243.737C254.997 244.755 254.287 245.757 253.584 246.715ZM216.21 231.367C216.271 230.201 216.353 228.998 216.454 227.79L217.297 227.853C217.197 229.053 217.115 230.249 217.055 231.406L216.21 231.367ZM257.702 240.7L256.979 240.285C257.618 239.289 258.26 238.256 258.888 237.216L259.622 237.614C258.991 238.66 258.345 239.698 257.702 240.7ZM216.801 224.223C216.931 223.052 217.08 221.856 217.243 220.666L218.081 220.769C217.919 221.953 217.772 223.143 217.642 224.307L216.801 224.223ZM261.458 234.483L260.714 234.103C261.302 233.07 261.891 232.008 262.463 230.948L263.216 231.313C262.641 232.378 262.049 233.444 261.458 234.483ZM217.77 217.12C217.958 215.951 218.163 214.762 218.378 213.586L219.212 213.723C218.997 214.894 218.793 216.077 218.606 217.24L217.77 217.12ZM264.901 228.107L264.14 227.758C264.681 226.702 265.222 225.618 265.749 224.536L266.517 224.871C265.988 225.958 265.444 227.047 264.901 228.107ZM219.063 210.066C219.3 208.907 219.554 207.727 219.817 206.558L220.645 206.726C220.382 207.889 220.129 209.064 219.893 210.218L219.063 210.066ZM268.066 221.606L267.291 221.284C267.787 220.213 268.285 219.11 268.769 218.006L269.551 218.314C269.063 219.422 268.564 220.53 268.066 221.606ZM220.64 203.066C220.925 201.907 221.224 200.736 221.529 199.587L222.349 199.782C222.045 200.927 221.748 202.093 221.464 203.247L220.64 203.066ZM270.973 214.999L270.187 214.704C270.648 213.6 271.104 212.482 271.543 211.378L272.334 211.661C271.894 212.768 271.436 213.891 270.973 214.999ZM222.481 196.124C222.809 194.972 223.15 193.812 223.494 192.676L224.307 192.897C223.963 194.029 223.624 195.185 223.298 196.332L222.481 196.124ZM273.636 208.301L272.84 208.031C273.26 206.918 273.677 205.785 274.079 204.665L274.879 204.922C274.477 206.047 274.058 207.184 273.636 208.301ZM224.566 189.246C224.902 188.202 225.253 187.14 225.609 186.089L225.696 185.832L226.501 186.077L226.414 186.334C226.059 187.38 225.71 188.439 225.375 189.479L224.566 189.246ZM276.065 201.524L275.26 201.28L275.289 201.196C275.661 200.098 276.029 198.982 276.384 197.877L277.193 198.11C276.838 199.219 276.467 200.339 276.094 201.441L276.065 201.524ZM227.685 182.693L226.885 182.436C227.286 181.318 227.705 180.181 228.131 179.058L228.927 179.328C228.503 180.447 228.085 181.58 227.685 182.693ZM277.449 194.458C277.795 193.312 278.134 192.156 278.455 191.023L279.272 191.23C278.95 192.368 278.61 193.528 278.262 194.679L277.449 194.458ZM230.227 175.982L229.436 175.699C229.875 174.599 230.334 173.476 230.8 172.362L231.587 172.658C231.122 173.767 230.664 174.886 230.227 175.982ZM279.4 187.572C279.703 186.427 279.999 185.261 280.281 184.107L281.106 184.287C280.822 185.446 280.524 186.617 280.22 187.767L279.4 187.572ZM233.006 169.356L232.226 169.048C232.717 167.935 233.218 166.828 233.714 165.758L234.488 166.08C233.994 167.145 233.496 168.247 233.006 169.356ZM281.098 180.626C281.359 179.462 281.611 178.287 281.847 177.133L282.676 177.285C282.44 178.444 282.188 179.624 281.925 180.793L281.098 180.626ZM236.034 162.83L235.266 162.494C235.799 161.401 236.344 160.313 236.885 159.259L237.646 159.609C237.107 160.658 236.565 161.742 236.034 162.83ZM282.523 173.628C282.739 172.446 282.941 171.263 283.125 170.11L283.961 170.23C283.777 171.388 283.573 172.577 283.357 173.764L282.523 173.628ZM239.327 156.421L238.574 156.055C239.158 154.976 239.751 153.91 240.337 152.887L241.08 153.268C240.498 154.286 239.908 155.347 239.327 156.421ZM283.646 166.581C283.806 165.397 283.952 164.207 284.08 163.043L284.921 163.126C284.793 164.296 284.646 165.493 284.485 166.683L283.646 166.581ZM242.91 150.156L242.176 149.758C242.811 148.709 243.459 147.672 244.1 146.673L244.823 147.09C244.185 148.082 243.541 149.113 242.91 150.156ZM284.421 159.496C284.519 158.296 284.599 157.1 284.657 155.943L285.502 155.981C285.443 157.146 285.363 158.35 285.264 159.558L284.421 159.496ZM246.824 144.076L246.115 143.64C246.815 142.619 247.526 141.619 248.229 140.666L248.922 141.124C248.226 142.07 247.519 143.063 246.824 144.076ZM284.778 152.386C284.798 151.175 284.795 149.978 284.768 148.829L285.614 148.812C285.641 149.971 285.644 151.177 285.624 152.399L284.778 152.386ZM251.129 138.246L250.455 137.763C251.237 136.783 252.028 135.836 252.807 134.948L253.458 135.459C252.687 136.338 251.904 137.276 251.129 138.246ZM284.606 145.279C284.52 144.057 284.404 142.868 284.262 141.743L285.101 141.648C285.246 142.786 285.363 143.99 285.449 145.226L284.606 145.279ZM255.925 132.787L255.304 132.243C256.196 131.331 257.094 130.47 257.975 129.685L258.555 130.268C257.688 131.041 256.803 131.889 255.925 132.787ZM283.697 138.24C283.456 137.029 283.172 135.87 282.853 134.798L283.668 134.581C283.993 135.676 284.282 136.857 284.528 138.092L283.697 138.24ZM261.379 127.959L260.857 127.328C261.918 126.541 262.975 125.849 264 125.272L264.432 125.96C263.439 126.52 262.411 127.193 261.379 127.959ZM281.642 131.472C281.133 130.322 280.558 129.283 279.934 128.383L280.641 127.943C281.294 128.884 281.893 129.967 282.422 131.162L281.642 131.472ZM267.748 124.45L267.461 123.697C268.765 123.253 270.039 123 271.248 122.944L271.289 123.744C270.164 123.796 268.972 124.033 267.748 124.45ZM277.563 125.785C276.616 125.021 275.574 124.463 274.466 124.126L274.724 123.364C275.939 123.733 277.079 124.343 278.111 125.175L277.563 125.785Z" fill="#40A2E3"/>
<path d="M324.707 216.502L324.393 216.406L324.564 215.901L324.879 215.996L324.707 216.502ZM322.012 215.682L319.632 214.959L319.803 214.453L322.184 215.177L322.012 215.682ZM317.252 214.235L314.872 213.511L315.043 213.006L317.423 213.73L317.252 214.235ZM312.492 212.788L310.112 212.064L310.283 211.558L312.663 212.282L312.492 212.788ZM307.731 211.34L305.351 210.616L305.523 210.11L307.902 210.834L307.731 211.34ZM302.971 209.893L300.591 209.169L300.762 208.663L303.142 209.387L302.971 209.893ZM298.211 208.445L295.831 207.721L296.002 207.216L298.382 207.939L298.211 208.445ZM293.45 206.998L291.07 206.274L291.242 205.769L293.622 206.492L293.45 206.998ZM288.69 205.55L286.31 204.826L286.482 204.321L288.862 205.044L288.69 205.55ZM283.93 204.102L281.55 203.379L281.721 202.873L284.101 203.597L283.93 204.102ZM279.17 202.655L276.79 201.931L276.961 201.426L279.341 202.149L279.17 202.655ZM274.409 201.207L272.029 200.484L272.201 199.978L274.581 200.702L274.409 201.207ZM269.649 199.76L267.269 199.036L267.44 198.531L269.82 199.255L269.649 199.76ZM264.889 198.312L262.509 197.588L262.68 197.083L265.06 197.807L264.889 198.312ZM260.128 196.865L257.749 196.141L257.92 195.635L260.3 196.359L260.128 196.865ZM255.368 195.417L252.988 194.693L253.159 194.188L255.539 194.912L255.368 195.417ZM250.608 193.97L248.228 193.246L248.399 192.741L250.779 193.464L250.608 193.97ZM245.848 192.522L243.468 191.799L243.639 191.293L246.019 192.017L245.848 192.522ZM241.087 191.075L238.708 190.351L238.879 189.845L241.259 190.569L241.087 191.075ZM236.327 189.627L233.947 188.903L234.118 188.398L236.499 189.121L236.327 189.627ZM231.567 188.18L229.187 187.456L229.358 186.95L231.738 187.674L231.567 188.18ZM226.807 186.732L224.427 186.008L224.598 185.503L226.978 186.226L226.807 186.732ZM222.046 185.284L219.666 184.561L219.838 184.055L222.217 184.779L222.046 185.284ZM217.286 183.837L214.906 183.113L215.078 182.608L217.457 183.332L217.286 183.837ZM212.526 182.39L210.146 181.666L210.317 181.16L212.697 181.884L212.526 182.39ZM207.765 180.942L205.385 180.218L205.557 179.713L207.937 180.437L207.765 180.942ZM203.005 179.495L200.625 178.771L200.796 178.265L203.177 178.989L203.005 179.495ZM198.245 178.047L195.865 177.323L196.036 176.818L198.416 177.541L198.245 178.047ZM193.484 176.6L191.104 175.876L191.276 175.371L193.655 176.094L193.484 176.6ZM188.724 175.152L186.344 174.428L186.515 173.923L188.895 174.646L188.724 175.152ZM183.964 173.704L181.584 172.981L181.756 172.475L184.136 173.199L183.964 173.704ZM179.204 172.257L176.824 171.533L176.995 171.027L179.376 171.751L179.204 172.257Z" fill="#40A2E3"/>
<path d="M227.374 263.866L226.84 263.703L226.941 263.405L227.476 263.567L227.374 263.866ZM228.24 261.313L227.706 261.151L228.47 258.897L229.004 259.06L228.24 261.313ZM229.768 256.806L229.234 256.643L229.999 254.39L230.533 254.552L229.768 256.806ZM231.297 252.298L230.763 252.136L231.527 249.882L232.061 250.044L231.297 252.298ZM232.826 247.79L232.292 247.628L233.056 245.374L233.59 245.536L232.826 247.79ZM234.354 243.282L233.82 243.12L234.585 240.866L235.119 241.028L234.354 243.282ZM235.883 238.775L235.349 238.612L236.113 236.358L236.647 236.521L235.883 238.775ZM237.411 234.267L236.877 234.104L237.641 231.851L238.176 232.013L237.411 234.267ZM238.94 229.759L238.406 229.596L239.17 227.342L239.704 227.505L238.94 229.759ZM240.469 225.251L239.935 225.089L240.699 222.835L241.234 222.997L240.469 225.251ZM241.997 220.743L241.463 220.581L242.227 218.327L242.761 218.49L241.997 220.743ZM243.526 216.236L242.992 216.073L243.756 213.819L244.29 213.982L243.526 216.236ZM245.055 211.728L244.521 211.566L245.285 209.312L245.819 209.474L245.055 211.728ZM246.583 207.22L246.049 207.058L246.813 204.804L247.347 204.967L246.583 207.22ZM248.112 202.712L247.577 202.55L248.342 200.296L248.876 200.459L248.112 202.712ZM249.64 198.205L249.106 198.042L249.871 195.789L250.405 195.951L249.64 198.205ZM251.169 193.697L250.634 193.534L251.399 191.281L251.933 191.443L251.169 193.697ZM252.698 189.189L252.163 189.027L252.928 186.773L253.462 186.935L252.698 189.189ZM254.226 184.681L253.692 184.519L254.457 182.265L254.991 182.427L254.226 184.681ZM255.755 180.173L255.22 180.011L255.985 177.757L256.519 177.919L255.755 180.173ZM257.283 175.666L256.749 175.503L257.514 173.249L258.048 173.412L257.283 175.666ZM258.812 171.158L258.278 170.995L259.042 168.742L259.576 168.904L258.812 171.158ZM260.34 166.65L259.806 166.488L260.571 164.234L261.105 164.396L260.34 166.65ZM261.869 162.142L261.335 161.98L262.1 159.726L262.634 159.888L261.869 162.142ZM263.398 157.635L262.864 157.473L263.628 155.219L264.162 155.381L263.398 157.635ZM264.926 153.127L264.392 152.965L265.157 150.711L265.691 150.873L264.926 153.127ZM266.455 148.619L265.921 148.456L266.685 146.202L267.219 146.365L266.455 148.619ZM267.984 144.111L267.45 143.949L268.214 141.695L268.748 141.857L267.984 144.111ZM269.512 139.604L268.978 139.441L269.742 137.187L270.276 137.349L269.512 139.604ZM271.041 135.096L270.506 134.933L271.271 132.68L271.805 132.842L271.041 135.096ZM272.569 130.588L272.035 130.426L272.799 128.172L273.334 128.334L272.569 130.588ZM274.098 126.08L273.564 125.918L274.328 123.664L274.862 123.827L274.098 126.08Z" fill="#40A2E3"/>
</g>
</svg>
