<svg width="100" height="100" viewBox="0 0 100 100" fill="none" xmlns="http://www.w3.org/2000/svg">
<path d="M17.75 17.75C12.5 23.05 12.5 31.525 12.5 48.5V51.5C12.5 68.45 12.5 76.925 17.75 82.25C23.05 87.5 31.525 87.5 48.5 87.5H51.5C68.45 87.5 76.925 87.5 82.25 82.25C87.5 76.95 87.5 68.475 87.5 51.5V48.5C87.5 31.55 87.5 23.075 82.25 17.75C76.95 12.5 68.475 12.5 51.5 12.5H48.5C31.55 12.5 23.075 12.5 17.75 17.75ZM25.15 35.325H33.75C34.025 49.625 40.325 55.675 45.325 56.925V35.325H53.4V47.65C58.325 47.125 63.525 41.5 65.275 35.3H73.325C72.6689 38.5095 71.3578 41.5492 69.4737 44.229C67.5896 46.9089 65.173 49.1714 62.375 50.875C65.4976 52.4286 68.2553 54.6268 70.466 57.3245C72.6767 60.0221 74.2902 63.158 75.2 66.525H66.325C64.425 60.6 59.675 56 53.4 55.375V66.525H52.4C35.3 66.525 25.55 54.825 25.15 35.325Z" fill="#40A2E3"/>
</svg>
