<svg width="100" height="100" viewBox="0 0 100 100" fill="none" xmlns="http://www.w3.org/2000/svg">
<path d="M50.0042 8.33301C73.0167 8.33301 91.6708 26.9872 91.6708 49.9997C91.6708 73.0122 73.0167 91.6664 50.0042 91.6664C42.6407 91.6782 35.4069 89.7296 29.0458 86.0205L8.35416 91.6664L13.9875 70.9663C10.2754 64.6033 8.32519 57.3663 8.33749 49.9997C8.33749 26.9872 26.9917 8.33301 50.0042 8.33301ZM35.8042 30.4163L34.9708 30.4497C34.4313 30.4825 33.9041 30.6243 33.4208 30.8663C32.9688 31.1223 32.5562 31.4423 32.1958 31.8163C31.6958 32.2872 31.4125 32.6955 31.1083 33.0913C29.5672 35.0951 28.7374 37.5551 28.75 40.083C28.7583 42.1247 29.2917 44.1122 30.125 45.9705C31.8292 49.7288 34.6333 53.708 38.3333 57.3955C39.225 58.283 40.1 59.1747 41.0417 60.0038C45.6391 64.0516 51.1177 66.9707 57.0417 68.5288L59.4083 68.8913C60.1792 68.933 60.95 68.8747 61.725 68.8372C62.9385 68.7745 64.1234 68.446 65.1958 67.8747C65.7415 67.5936 66.274 67.2877 66.7917 66.958C66.7917 66.958 66.9708 66.8413 67.3125 66.583C67.875 66.1663 68.2208 65.8705 68.6875 65.383C69.0333 65.0247 69.3333 64.6038 69.5625 64.1247C69.8875 63.4455 70.2125 62.1497 70.3458 61.0705C70.4458 60.2455 70.4167 59.7955 70.4042 59.5163C70.3875 59.0705 70.0167 58.608 69.6125 58.4122L67.1875 57.3247C67.1875 57.3247 63.5625 55.7455 61.3458 54.7372C61.1139 54.6359 60.8653 54.578 60.6125 54.5663C60.3274 54.5371 60.0394 54.5691 59.7677 54.6604C59.496 54.7517 59.2471 54.9 59.0375 55.0955C59.0167 55.0872 58.7375 55.3247 55.725 58.9747C55.5521 59.207 55.3139 59.3826 55.0408 59.4791C54.7678 59.5755 54.4721 59.5885 54.1917 59.5163C53.9202 59.4436 53.6543 59.3517 53.3958 59.2413C52.8792 59.0247 52.7 58.9413 52.3458 58.7913C49.9544 57.7478 47.7404 56.3378 45.7833 54.6122C45.2583 54.1538 44.7708 53.6538 44.2708 53.1705C42.6316 51.6006 41.203 49.8247 40.0208 47.8872L39.775 47.4913C39.5984 47.2254 39.4557 46.9384 39.35 46.6372C39.1917 46.0247 39.6042 45.533 39.6042 45.533C39.6042 45.533 40.6167 44.4247 41.0875 43.8247C41.5458 43.2413 41.9333 42.6747 42.1833 42.2705C42.675 41.4788 42.8292 40.6663 42.5708 40.0372C41.4042 37.1872 40.1958 34.3497 38.9542 31.533C38.7083 30.9747 37.9792 30.5747 37.3167 30.4955C37.0917 30.4705 36.8667 30.4455 36.6417 30.4288C36.0821 30.401 35.5214 30.4066 34.9625 30.4455L35.8042 30.4163Z" fill="#40A2E3"/>
</svg>
