<svg width="50" height="50" viewBox="0 0 50 50" fill="none" xmlns="http://www.w3.org/2000/svg">
<path d="M25.0021 4.16699C36.5083 4.16699 45.8354 13.4941 45.8354 25.0003C45.8354 36.5066 36.5083 45.8337 25.0021 45.8337C21.3204 45.8396 17.7034 44.8653 14.5229 43.0107L4.17706 45.8337L6.99373 35.4837C5.13767 32.3021 4.16258 28.6837 4.16873 25.0003C4.16873 13.4941 13.4958 4.16699 25.0021 4.16699ZM17.9021 15.2087L17.4854 15.2253C17.2156 15.2418 16.952 15.3126 16.7104 15.4337C16.4844 15.5616 16.2781 15.7216 16.0979 15.9087C15.8479 16.1441 15.7062 16.3482 15.5541 16.5462C14.7836 17.548 14.3687 18.7781 14.375 20.042C14.3791 21.0628 14.6458 22.0566 15.0625 22.9857C15.9146 24.8649 17.3166 26.8545 19.1666 28.6982C19.6125 29.142 20.05 29.5878 20.5208 30.0024C22.8195 32.0263 25.5588 33.4858 28.5208 34.2649L29.7041 34.4462C30.0896 34.467 30.475 34.4378 30.8625 34.4191C31.4692 34.3878 32.0617 34.2235 32.5979 33.9378C32.8707 33.7973 33.137 33.6444 33.3958 33.4795C33.3958 33.4795 33.4854 33.4212 33.6562 33.292C33.9375 33.0837 34.1104 32.9357 34.3437 32.692C34.5166 32.5128 34.6666 32.3024 34.7812 32.0628C34.9437 31.7232 35.1062 31.0753 35.1729 30.5357C35.2229 30.1232 35.2083 29.8982 35.2021 29.7587C35.1937 29.5357 35.0083 29.3045 34.8062 29.2066L33.5937 28.6628C33.5937 28.6628 31.7812 27.8732 30.6729 27.3691C30.5569 27.3184 30.4326 27.2895 30.3062 27.2837C30.1637 27.269 30.0197 27.2851 29.8838 27.3307C29.748 27.3763 29.6235 27.4505 29.5187 27.5482C29.5083 27.5441 29.3687 27.6628 27.8625 29.4878C27.776 29.604 27.6569 29.6918 27.5204 29.74C27.3839 29.7883 27.2361 29.7947 27.0958 29.7587C26.9601 29.7223 26.8271 29.6763 26.6979 29.6212C26.4396 29.5128 26.35 29.4712 26.1729 29.3962C24.9772 28.8744 23.8702 28.1694 22.8916 27.3066C22.6291 27.0774 22.3854 26.8274 22.1354 26.5857C21.3158 25.8008 20.6015 24.9128 20.0104 23.9441L19.8875 23.7462C19.7992 23.6132 19.7278 23.4697 19.675 23.3191C19.5958 23.0128 19.8021 22.767 19.8021 22.767C19.8021 22.767 20.3083 22.2128 20.5437 21.9128C20.7729 21.6212 20.9666 21.3378 21.0916 21.1357C21.3375 20.7399 21.4146 20.3337 21.2854 20.0191C20.7021 18.5941 20.0979 17.1753 19.4771 15.767C19.3541 15.4878 18.9896 15.2878 18.6583 15.2482C18.5458 15.2357 18.4333 15.2232 18.3208 15.2149C18.041 15.201 17.7607 15.2038 17.4812 15.2232L17.9021 15.2087Z" fill="white"/>
</svg>
