<svg width="246" height="35" viewBox="0 0 246 35" fill="none" xmlns="http://www.w3.org/2000/svg">
<path d="M23.216 0.399998H30.992V34H23.216V0.399998ZM7.952 34H0.176V0.399998H7.952V34ZM23.792 20.224H7.376V13.648H23.792V20.224ZM54.2904 34V28.96L53.8104 27.856V18.832C53.8104 17.232 53.3144 15.984 52.3224 15.088C51.3624 14.192 49.8744 13.744 47.8584 13.744C46.4824 13.744 45.1224 13.968 43.7784 14.416C42.4664 14.832 41.3464 15.408 40.4184 16.144L37.7304 10.912C39.1384 9.92 40.8344 9.152 42.8184 8.608C44.8024 8.064 46.8184 7.792 48.8664 7.792C52.8024 7.792 55.8584 8.72 58.0344 10.576C60.2104 12.432 61.2984 15.328 61.2984 19.264V34H54.2904ZM46.4184 34.384C44.4024 34.384 42.6744 34.048 41.2344 33.376C39.7944 32.672 38.6904 31.728 37.9224 30.544C37.1544 29.36 36.7704 28.032 36.7704 26.56C36.7704 25.024 37.1384 23.68 37.8744 22.528C38.6424 21.376 39.8424 20.48 41.4744 19.84C43.1064 19.168 45.2344 18.832 47.8584 18.832H54.7224V23.2H48.6744C46.9144 23.2 45.6984 23.488 45.0264 24.064C44.3864 24.64 44.0664 25.36 44.0664 26.224C44.0664 27.184 44.4344 27.952 45.1704 28.528C45.9384 29.072 46.9784 29.344 48.2904 29.344C49.5384 29.344 50.6584 29.056 51.6504 28.48C52.6424 27.872 53.3624 26.992 53.8104 25.84L54.9624 29.296C54.4184 30.96 53.4264 32.224 51.9864 33.088C50.5464 33.952 48.6904 34.384 46.4184 34.384ZM76.3047 34.48C74.3208 34.48 72.3368 34.272 70.3528 33.856C68.4008 33.44 66.5928 32.816 64.9288 31.984L66.9448 26.752C68.2568 27.392 69.6808 27.888 71.2168 28.24C72.7848 28.56 74.3688 28.72 75.9688 28.72C77.1208 28.72 78.1128 28.608 78.9448 28.384C79.8088 28.128 80.4648 27.776 80.9128 27.328C81.3608 26.88 81.5848 26.336 81.5848 25.696C81.5848 24.864 81.2328 24.24 80.5288 23.824C79.8248 23.376 78.8008 23.152 77.4568 23.152H72.1768V18.496H76.8328C77.6968 18.496 78.4328 18.4 79.0408 18.208C79.6488 18.016 80.0968 17.744 80.3848 17.392C80.7048 17.008 80.8648 16.56 80.8648 16.048C80.8648 15.504 80.6728 15.04 80.2888 14.656C79.9048 14.272 79.3448 13.984 78.6088 13.792C77.8728 13.568 76.9448 13.456 75.8248 13.456C74.5448 13.456 73.2168 13.616 71.8408 13.936C70.4648 14.224 69.0568 14.656 67.6168 15.232L65.7928 10.048C67.4888 9.344 69.1688 8.784 70.8328 8.368C72.4968 7.952 74.1448 7.728 75.7768 7.696C78.1768 7.632 80.3368 7.888 82.2568 8.464C84.1768 9.04 85.6808 9.872 86.7688 10.96C87.8888 12.048 88.4488 13.376 88.4488 14.944C88.4488 16.192 88.0648 17.312 87.2968 18.304C86.5608 19.296 85.5368 20.08 84.2248 20.656C82.9128 21.2 81.4408 21.472 79.8088 21.472L80.0008 19.984C82.8488 19.984 85.0888 20.56 86.7208 21.712C88.3528 22.832 89.1688 24.368 89.1688 26.32C89.1688 27.984 88.5928 29.44 87.4408 30.688C86.3208 31.904 84.7848 32.848 82.8328 33.52C80.9128 34.16 78.7368 34.48 76.3047 34.48ZM94.5219 34V8.176H107.722C110.954 8.176 113.482 8.768 115.306 9.952C117.13 11.104 118.042 12.736 118.042 14.848C118.042 16.96 117.178 18.624 115.45 19.84C113.754 21.024 111.498 21.616 108.682 21.616L109.45 19.888C112.586 19.888 114.922 20.464 116.458 21.616C118.026 22.768 118.81 24.448 118.81 26.656C118.81 28.928 117.946 30.72 116.218 32.032C114.49 33.344 111.85 34 108.298 34H94.5219ZM101.386 28.912H107.674C109.05 28.912 110.074 28.688 110.746 28.24C111.45 27.76 111.802 27.04 111.802 26.08C111.802 25.088 111.482 24.368 110.842 23.92C110.202 23.44 109.194 23.2 107.818 23.2H101.386V28.912ZM101.386 18.784H107.05C108.362 18.784 109.338 18.544 109.978 18.064C110.65 17.584 110.986 16.896 110.986 16C110.986 15.072 110.65 14.384 109.978 13.936C109.338 13.488 108.362 13.264 107.05 13.264H101.386V18.784ZM139.837 34V28.96L139.357 27.856V18.832C139.357 17.232 138.861 15.984 137.869 15.088C136.909 14.192 135.421 13.744 133.405 13.744C132.029 13.744 130.669 13.968 129.325 14.416C128.013 14.832 126.893 15.408 125.965 16.144L123.277 10.912C124.685 9.92 126.381 9.152 128.365 8.608C130.349 8.064 132.365 7.792 134.413 7.792C138.349 7.792 141.405 8.72 143.581 10.576C145.757 12.432 146.845 15.328 146.845 19.264V34H139.837ZM131.965 34.384C129.949 34.384 128.221 34.048 126.781 33.376C125.341 32.672 124.237 31.728 123.469 30.544C122.701 29.36 122.317 28.032 122.317 26.56C122.317 25.024 122.685 23.68 123.421 22.528C124.189 21.376 125.389 20.48 127.021 19.84C128.653 19.168 130.781 18.832 133.405 18.832H140.269V23.2H134.221C132.461 23.2 131.245 23.488 130.573 24.064C129.933 24.64 129.613 25.36 129.613 26.224C129.613 27.184 129.981 27.952 130.717 28.528C131.485 29.072 132.525 29.344 133.837 29.344C135.085 29.344 136.205 29.056 137.197 28.48C138.189 27.872 138.909 26.992 139.357 25.84L140.509 29.296C139.965 30.96 138.973 32.224 137.533 33.088C136.093 33.952 134.237 34.384 131.965 34.384ZM153.35 34V8.176H160.79V18.256H172.022V8.176H179.51V34H172.022V24.352H160.79V34H153.35ZM186.678 34V8.176H194.118V23.536L206.694 8.176H213.558V34H206.118V18.64L193.59 34H186.678ZM233.38 34.384C230.436 34.384 227.844 33.808 225.604 32.656C223.396 31.504 221.684 29.936 220.468 27.952C219.252 25.936 218.644 23.648 218.644 21.088C218.644 18.496 219.236 16.208 220.42 14.224C221.636 12.208 223.284 10.64 225.364 9.52C227.444 8.368 229.796 7.792 232.42 7.792C234.948 7.792 237.22 8.336 239.236 9.424C241.284 10.48 242.9 12.016 244.084 14.032C245.268 16.016 245.86 18.4 245.86 21.184C245.86 21.472 245.844 21.808 245.812 22.192C245.78 22.544 245.748 22.88 245.716 23.2H224.74V18.832H241.78L238.9 20.128C238.9 18.784 238.628 17.616 238.084 16.624C237.54 15.632 236.788 14.864 235.828 14.32C234.868 13.744 233.748 13.456 232.468 13.456C231.188 13.456 230.052 13.744 229.06 14.32C228.1 14.864 227.348 15.648 226.804 16.672C226.26 17.664 225.988 18.848 225.988 20.224V21.376C225.988 22.784 226.292 24.032 226.9 25.12C227.54 26.176 228.42 26.992 229.54 27.568C230.692 28.112 232.036 28.384 233.572 28.384C234.948 28.384 236.148 28.176 237.172 27.76C238.228 27.344 239.188 26.72 240.052 25.888L244.036 30.208C242.852 31.552 241.364 32.592 239.572 33.328C237.78 34.032 235.716 34.384 233.38 34.384Z" fill="#303030"/>
</svg>
